<svg xmlns="http://www.w3.org/2000/svg" xmlns:xlink="http://www.w3.org/1999/xlink" width="500" zoomAndPan="magnify" viewBox="0 0 375 374.999991" height="500" preserveAspectRatio="xMidYMid meet" version="1.0"><defs><g/><clipPath id="56d6cc4023"><path d="M 77 157 L 269 157 L 269 280 L 77 280 Z M 77 157 " clip-rule="nonzero"/></clipPath><clipPath id="f02de7eb51"><path d="M 208.929688 319.101562 L 57.394531 248.320312 L 126.589844 100.183594 L 278.125 170.964844 Z M 208.929688 319.101562 " clip-rule="nonzero"/></clipPath><clipPath id="29b4f12363"><path d="M 57.554688 248.394531 L 209.085938 319.175781 L 278.28125 171.039062 L 126.75 100.257812 Z M 57.554688 248.394531 " clip-rule="nonzero"/></clipPath></defs><g fill="#000000" fill-opacity="1"><g transform="translate(134.801993, 212.249986)"><g><path d="M 16.34375 -11.328125 C 16.34375 -9.765625 16.628906 -8.285156 17.203125 -6.890625 C 17.785156 -5.492188 18.585938 -4.285156 19.609375 -3.265625 C 20.628906 -2.242188 21.816406 -1.441406 23.171875 -0.859375 C 24.535156 -0.285156 26 0 27.5625 0 L 2.546875 0 C 4.046875 -0.207031 5.492188 -0.679688 6.890625 -1.421875 C 8.285156 -2.171875 9.59375 -3.109375 10.8125 -4.234375 C 12.039062 -5.359375 13.128906 -6.597656 14.078125 -7.953125 C 15.035156 -9.316406 15.789062 -10.71875 16.34375 -12.15625 Z M 35.9375 0 C 37.375 0 38.601562 -0.59375 39.625 -1.78125 C 40.644531 -2.976562 41.15625 -4.320312 41.15625 -5.8125 C 41.15625 -6.09375 41.15625 -6.367188 41.15625 -6.640625 C 41.15625 -6.910156 41.085938 -7.179688 40.953125 -7.453125 L 37.984375 -16.03125 L 37.78125 -16.640625 L 30.53125 -37.578125 C 30.050781 -38.734375 29.203125 -39.3125 27.984375 -39.3125 C 26.816406 -39.3125 26 -38.734375 25.53125 -37.578125 L 37.78125 -71.484375 L 49.109375 -38.90625 C 49.585938 -37.539062 50.132812 -35.921875 50.75 -34.046875 C 51.363281 -32.179688 51.90625 -30.566406 52.375 -29.203125 L 60.75 -5.3125 C 61.226562 -3.945312 62.0625 -2.71875 63.25 -1.625 C 64.445312 -0.539062 65.828125 0 67.390625 0 Z M 35.9375 0 "/></g></g></g><g fill="#000000" fill-opacity="1"><g transform="translate(204.744215, 212.249986)"><g><path d="M 26.65625 -6.734375 C 26.65625 -5.035156 27.25 -3.488281 28.4375 -2.09375 C 29.625 -0.695312 31.101562 0 32.875 0 L 2.546875 0 C 4.253906 0 5.703125 -0.695312 6.890625 -2.09375 C 8.078125 -3.488281 8.671875 -5.035156 8.671875 -6.734375 L 8.671875 -64.734375 C 8.671875 -66.441406 8.078125 -67.992188 6.890625 -69.390625 C 5.703125 -70.785156 4.253906 -71.484375 2.546875 -71.484375 L 32.875 -71.484375 C 31.101562 -71.484375 29.625 -70.785156 28.4375 -69.390625 C 27.25 -67.992188 26.65625 -66.441406 26.65625 -64.734375 Z M 26.65625 -6.734375 "/></g></g></g><g clip-path="url(#56d6cc4023)"><g clip-path="url(#f02de7eb51)"><g clip-path="url(#29b4f12363)"><path fill="#000000" d="M 175.90625 249.738281 C 179.707031 251.515625 184.003906 250.941406 187.160156 248.613281 C 180.121094 260.941406 169.105469 269.824219 156.523438 274.398438 C 142.523438 279.484375 126.582031 279.226562 112.023438 272.425781 C 97.460938 265.625 87.035156 253.5625 81.949219 239.566406 C 76.863281 225.566406 77.121094 209.625 83.921875 195.066406 C 90.722656 180.503906 102.78125 170.078125 116.78125 164.992188 C 130.78125 159.90625 146.722656 160.164062 161.28125 166.964844 C 162.40625 167.488281 163.488281 168.035156 164.535156 168.605469 C 165.59375 169.183594 166.636719 169.792969 167.667969 170.441406 L 167.699219 170.460938 C 176.234375 175.660156 183.777344 182.285156 191.40625 188.980469 C 200.953125 197.367188 210.632812 205.867188 222.589844 211.890625 L 222.605469 211.902344 C 222.945312 212.097656 223.316406 212.296875 223.710938 212.5 C 224.109375 212.707031 224.488281 212.894531 224.839844 213.058594 C 232.449219 216.613281 240.785156 216.75 248.101562 214.089844 C 255.417969 211.433594 261.722656 205.980469 265.28125 198.367188 C 268.835938 190.757812 268.96875 182.425781 266.3125 175.105469 C 263.652344 167.789062 258.203125 161.484375 250.589844 157.925781 C 250.269531 157.777344 249.890625 157.914062 249.738281 158.238281 C 249.589844 158.558594 249.726562 158.9375 250.046875 159.089844 C 257.339844 162.496094 262.5625 168.53125 265.109375 175.542969 C 267.65625 182.554688 267.527344 190.539062 264.121094 197.828125 C 260.714844 205.121094 254.675781 210.34375 247.664062 212.890625 C 240.65625 215.433594 232.671875 215.308594 225.378906 211.902344 C 224.980469 211.714844 224.621094 211.539062 224.292969 211.371094 C 223.957031 211.195312 223.601562 211.003906 223.234375 210.789062 C 223.210938 210.777344 223.1875 210.765625 223.164062 210.757812 C 211.351562 204.804688 201.734375 196.359375 192.246094 188.023438 C 184.574219 181.285156 176.984375 174.621094 168.363281 169.371094 L 168.34375 169.355469 C 167.3125 168.710938 166.246094 168.085938 165.140625 167.484375 C 164.046875 166.890625 162.941406 166.328125 161.824219 165.808594 C 146.941406 158.855469 130.652344 158.59375 116.34375 163.792969 C 102.039062 168.988281 89.710938 179.644531 82.761719 194.523438 C 75.808594 209.40625 75.546875 225.695312 80.746094 240.003906 C 85.941406 254.308594 96.597656 266.636719 111.480469 273.585938 C 126.359375 280.539062 142.648438 280.800781 156.957031 275.605469 C 171.265625 270.40625 183.589844 259.75 190.542969 244.871094 C 190.605469 244.734375 190.617188 244.585938 190.582031 244.449219 L 190.605469 244.402344 C 193.191406 238.867188 190.800781 232.285156 185.265625 229.699219 C 179.730469 227.117188 173.152344 229.507812 170.566406 235.039062 C 167.980469 240.574219 170.371094 247.15625 175.90625 249.742188 Z M 175.90625 249.738281 " fill-opacity="1" fill-rule="evenodd"/></g></g></g><g fill="#000000" fill-opacity="1"><g transform="translate(200.407023, 245.22259)"><g><path d="M 7.390625 0.40625 C 6.585938 0.40625 5.78125 0.296875 4.96875 0.078125 C 4.164062 -0.140625 3.457031 -0.460938 2.84375 -0.890625 L 2.96875 0.203125 L 1.640625 0.203125 L 1.484375 -5.25 L 2.484375 -5.25 C 2.566406 -3.78125 3.066406 -2.648438 3.984375 -1.859375 C 4.910156 -1.066406 6.082031 -0.671875 7.5 -0.671875 C 8.53125 -0.671875 9.398438 -0.953125 10.109375 -1.515625 C 10.816406 -2.085938 11.171875 -2.867188 11.171875 -3.859375 C 11.171875 -4.597656 10.96875 -5.222656 10.5625 -5.734375 C 10.164062 -6.253906 9.671875 -6.691406 9.078125 -7.046875 C 8.492188 -7.398438 7.703125 -7.804688 6.703125 -8.265625 C 5.554688 -8.804688 4.644531 -9.28125 3.96875 -9.6875 C 3.300781 -10.101562 2.726562 -10.644531 2.25 -11.3125 C 1.769531 -11.988281 1.53125 -12.820312 1.53125 -13.8125 C 1.53125 -14.488281 1.6875 -15.164062 2 -15.84375 C 2.320312 -16.53125 2.867188 -17.113281 3.640625 -17.59375 C 4.421875 -18.070312 5.453125 -18.3125 6.734375 -18.3125 C 7.492188 -18.3125 8.257812 -18.210938 9.03125 -18.015625 C 9.8125 -17.816406 10.523438 -17.484375 11.171875 -17.015625 L 11.078125 -18.109375 L 12.375 -18.109375 L 12.375 -12.484375 L 11.453125 -12.484375 C 11.367188 -13.828125 10.9375 -14.960938 10.15625 -15.890625 C 9.382812 -16.828125 8.300781 -17.296875 6.90625 -17.296875 C 5.882812 -17.296875 5.082031 -17.007812 4.5 -16.4375 C 3.914062 -15.863281 3.625 -15.148438 3.625 -14.296875 C 3.625 -13.617188 3.820312 -13.03125 4.21875 -12.53125 C 4.613281 -12.039062 5.09375 -11.628906 5.65625 -11.296875 C 6.21875 -10.972656 7.007812 -10.578125 8.03125 -10.109375 C 9.1875 -9.578125 10.117188 -9.097656 10.828125 -8.671875 C 11.535156 -8.242188 12.132812 -7.679688 12.625 -6.984375 C 13.125 -6.296875 13.375 -5.453125 13.375 -4.453125 C 13.375 -3.492188 13.140625 -2.644531 12.671875 -1.90625 C 12.203125 -1.175781 11.515625 -0.609375 10.609375 -0.203125 C 9.710938 0.203125 8.640625 0.40625 7.390625 0.40625 Z M 7.390625 0.40625 "/></g></g></g><g fill="#000000" fill-opacity="1"><g transform="translate(224.50793, 245.22259)"><g><path d="M 5.3125 -0.84375 C 6.050781 -0.875 6.523438 -1.078125 6.734375 -1.453125 C 6.953125 -1.828125 7.0625 -2.410156 7.0625 -3.203125 L 7.0625 -3.984375 L 7.078125 -16.953125 L 4.453125 -16.9375 C 3.390625 -16.9375 2.632812 -16.582031 2.1875 -15.875 C 1.738281 -15.164062 1.515625 -14.039062 1.515625 -12.5 L 0.5625 -12.5 L 0.71875 -17.90625 L 15.625 -17.90625 L 15.78125 -12.5 L 14.8125 -12.5 C 14.789062 -13.582031 14.679688 -14.441406 14.484375 -15.078125 C 14.296875 -15.710938 13.960938 -16.1875 13.484375 -16.5 C 13.015625 -16.820312 12.347656 -16.984375 11.484375 -16.984375 L 9.3125 -16.984375 L 9.28125 -3.046875 C 9.28125 -2.140625 9.253906 -1.460938 9.203125 -1.015625 L 11.328125 -1.125 L 11.328125 0 L 5.3125 0 Z M 5.3125 -0.84375 "/></g></g></g><g fill="#000000" fill-opacity="1"><g transform="translate(250.476329, 245.22259)"><g><path d="M 10.28125 0.40625 C 8.238281 0.40625 6.535156 -0.0390625 5.171875 -0.9375 C 3.804688 -1.84375 2.796875 -3.007812 2.140625 -4.4375 C 1.492188 -5.863281 1.171875 -7.367188 1.171875 -8.953125 C 1.171875 -10.472656 1.507812 -11.945312 2.1875 -13.375 C 2.863281 -14.8125 3.867188 -15.992188 5.203125 -16.921875 C 6.546875 -17.847656 8.171875 -18.3125 10.078125 -18.3125 C 12.035156 -18.3125 13.703125 -17.847656 15.078125 -16.921875 C 16.453125 -15.992188 17.476562 -14.8125 18.15625 -13.375 C 18.84375 -11.945312 19.1875 -10.472656 19.1875 -8.953125 C 19.1875 -7.453125 18.847656 -5.976562 18.171875 -4.53125 C 17.492188 -3.09375 16.484375 -1.910156 15.140625 -0.984375 C 13.804688 -0.0546875 12.1875 0.40625 10.28125 0.40625 Z M 10.328125 -0.640625 C 11.660156 -0.640625 12.800781 -1.019531 13.75 -1.78125 C 14.695312 -2.539062 15.410156 -3.515625 15.890625 -4.703125 C 16.378906 -5.898438 16.625 -7.15625 16.625 -8.46875 C 16.625 -9.914062 16.359375 -11.316406 15.828125 -12.671875 C 15.304688 -14.023438 14.539062 -15.132812 13.53125 -16 C 12.519531 -16.863281 11.34375 -17.296875 10 -17.296875 C 8.664062 -17.296875 7.519531 -16.914062 6.5625 -16.15625 C 5.613281 -15.394531 4.894531 -14.40625 4.40625 -13.1875 C 3.925781 -11.976562 3.6875 -10.71875 3.6875 -9.40625 C 3.6875 -8.0625 3.929688 -6.710938 4.421875 -5.359375 C 4.921875 -4.003906 5.671875 -2.878906 6.671875 -1.984375 C 7.679688 -1.085938 8.898438 -0.640625 10.328125 -0.640625 Z M 10.328125 -0.640625 "/></g></g></g><g fill="#000000" fill-opacity="1"><g transform="translate(280.384357, 245.22259)"><g><path d="M 1.40625 -0.84375 C 2 -0.863281 2.421875 -1 2.671875 -1.25 C 2.929688 -1.507812 3.078125 -1.8125 3.109375 -2.15625 C 3.148438 -2.507812 3.171875 -3.117188 3.171875 -3.984375 L 3.171875 -15.046875 C 3.171875 -15.753906 3.195312 -16.363281 3.25 -16.875 L 1.40625 -16.78125 L 1.40625 -17.90625 C 3.175781 -17.9375 4.515625 -17.953125 5.421875 -17.953125 C 6.242188 -17.953125 6.859375 -17.945312 7.265625 -17.9375 C 9.671875 -17.894531 11.429688 -17.484375 12.546875 -16.703125 C 13.660156 -15.929688 14.21875 -14.816406 14.21875 -13.359375 C 14.238281 -12.179688 13.890625 -11.117188 13.171875 -10.171875 C 12.453125 -9.234375 11.207031 -8.585938 9.4375 -8.234375 C 9.726562 -8.015625 9.992188 -7.75 10.234375 -7.4375 C 10.472656 -7.132812 10.796875 -6.660156 11.203125 -6.015625 L 12.9375 -3.28125 C 13.3125 -2.675781 13.625 -2.21875 13.875 -1.90625 C 14.125 -1.59375 14.421875 -1.335938 14.765625 -1.140625 C 15.117188 -0.941406 15.550781 -0.84375 16.0625 -0.84375 L 16.0625 0 L 12.84375 0 C 12.382812 -0.394531 11.992188 -0.800781 11.671875 -1.21875 C 11.359375 -1.632812 10.988281 -2.175781 10.5625 -2.84375 L 8.84375 -5.578125 L 8.515625 -6.109375 C 8.242188 -6.566406 8.003906 -6.941406 7.796875 -7.234375 C 7.597656 -7.523438 7.378906 -7.78125 7.140625 -8 C 6.984375 -7.988281 6.742188 -7.984375 6.421875 -7.984375 C 5.960938 -7.984375 5.617188 -7.988281 5.390625 -8 L 5.390625 -3.046875 C 5.390625 -2.140625 5.363281 -1.460938 5.3125 -1.015625 L 7.15625 -1.125 L 7.15625 0 L 1.40625 0 Z M 6.515625 -8.953125 C 9.992188 -8.953125 11.734375 -10.328125 11.734375 -13.078125 C 11.734375 -14.367188 11.359375 -15.335938 10.609375 -15.984375 C 9.859375 -16.628906 8.707031 -16.953125 7.15625 -16.953125 C 6.5625 -16.953125 6.132812 -16.832031 5.875 -16.59375 C 5.625 -16.351562 5.476562 -16.0625 5.4375 -15.71875 C 5.40625 -15.382812 5.390625 -14.785156 5.390625 -13.921875 L 5.390625 -9 C 5.910156 -8.96875 6.285156 -8.953125 6.515625 -8.953125 Z M 6.515625 -8.953125 "/></g></g></g><g fill="#000000" fill-opacity="1"><g transform="translate(306.045769, 245.22259)"><g><path d="M 5.5 -0.84375 C 6.226562 -0.875 6.695312 -1.078125 6.90625 -1.453125 C 7.125 -1.828125 7.234375 -2.410156 7.234375 -3.203125 L 7.234375 -3.984375 L 7.265625 -6.90625 L 2.8125 -13.9375 C 2.03125 -15.144531 1.570312 -16.109375 1.4375 -16.828125 L -0.15625 -16.78125 L -0.15625 -17.90625 L 6.453125 -17.90625 L 6.453125 -17.0625 C 5.117188 -17.0625 4.453125 -16.6875 4.453125 -15.9375 C 4.453125 -15.488281 4.664062 -14.929688 5.09375 -14.265625 L 5.890625 -13.015625 C 6.972656 -11.242188 7.914062 -9.804688 8.71875 -8.703125 L 8.765625 -8.703125 C 9.367188 -9.878906 10.285156 -11.617188 11.515625 -13.921875 L 12.046875 -14.90625 C 12.535156 -15.84375 12.945312 -16.492188 13.28125 -16.859375 L 11.25 -16.78125 L 11.25 -17.90625 L 16.46875 -17.90625 L 16.46875 -17.0625 C 15.664062 -17.007812 14.992188 -16.734375 14.453125 -16.234375 C 13.921875 -15.742188 13.34375 -14.921875 12.71875 -13.765625 L 9.484375 -7.671875 C 9.472656 -6.835938 9.460938 -5.953125 9.453125 -5.015625 C 9.441406 -4.078125 9.445312 -3.421875 9.46875 -3.046875 C 9.46875 -2.140625 9.441406 -1.460938 9.390625 -1.015625 L 11.515625 -1.125 L 11.515625 0 L 5.5 0 Z M 5.5 -0.84375 "/></g></g></g><g fill="#000000" fill-opacity="1"><g transform="translate(200.407023, 273.722588)"><g><path d="M 2.6875 -13.359375 L 2.359375 -14.34375 C 1.941406 -15.625 1.691406 -16.453125 1.609375 -16.828125 L 0.171875 -16.78125 L 0.171875 -17.90625 L 6.390625 -17.90625 L 6.390625 -17.0625 C 5.691406 -17.03125 5.195312 -16.914062 4.90625 -16.71875 C 4.613281 -16.519531 4.46875 -16.195312 4.46875 -15.75 C 4.46875 -15.34375 4.554688 -14.847656 4.734375 -14.265625 C 5.035156 -13.128906 5.441406 -11.851562 5.953125 -10.4375 C 6.046875 -10.175781 6.148438 -9.867188 6.265625 -9.515625 C 6.390625 -9.171875 6.523438 -8.769531 6.671875 -8.3125 C 6.773438 -7.957031 6.90625 -7.566406 7.0625 -7.140625 C 7.21875 -6.710938 7.328125 -6.40625 7.390625 -6.21875 C 7.734375 -5.289062 7.988281 -4.554688 8.15625 -4.015625 L 8.203125 -4.015625 C 8.546875 -5.171875 8.898438 -6.296875 9.265625 -7.390625 C 9.878906 -9.367188 10.550781 -11.457031 11.28125 -13.65625 C 12.050781 -15.957031 12.507812 -17.390625 12.65625 -17.953125 L 13.484375 -17.953125 C 13.679688 -17.253906 14.023438 -16.160156 14.515625 -14.671875 C 15.015625 -13.179688 15.378906 -12.101562 15.609375 -11.4375 C 16.117188 -9.96875 16.46875 -8.925781 16.65625 -8.3125 C 16.789062 -7.851562 17.007812 -7.160156 17.3125 -6.234375 C 17.65625 -5.242188 17.929688 -4.398438 18.140625 -3.703125 L 18.21875 -3.703125 C 18.625 -5.035156 18.972656 -6.140625 19.265625 -7.015625 C 20.128906 -9.484375 20.835938 -11.613281 21.390625 -13.40625 C 21.578125 -14.03125 21.742188 -14.554688 21.890625 -14.984375 C 22.210938 -15.859375 22.476562 -16.484375 22.6875 -16.859375 L 20.640625 -16.78125 L 20.640625 -17.90625 L 25.828125 -17.90625 L 25.828125 -17.0625 C 25.210938 -16.988281 24.75 -16.859375 24.4375 -16.671875 C 24.125 -16.484375 23.84375 -16.144531 23.59375 -15.65625 C 23.34375 -15.175781 23.03125 -14.382812 22.65625 -13.28125 L 21.359375 -9.390625 C 19.992188 -5.242188 18.894531 -2.03125 18.0625 0.25 L 17.296875 0.25 L 12.5 -13.421875 L 8 0.25 L 7.265625 0.25 Z M 2.6875 -13.359375 "/></g></g></g><g fill="#000000" fill-opacity="1"><g transform="translate(235.457041, 273.722588)"><g><path d="M 1.40625 -0.84375 C 2 -0.863281 2.421875 -1 2.671875 -1.25 C 2.929688 -1.507812 3.078125 -1.8125 3.109375 -2.15625 C 3.148438 -2.507812 3.171875 -3.117188 3.171875 -3.984375 L 3.171875 -15.046875 C 3.171875 -15.753906 3.195312 -16.363281 3.25 -16.875 L 1.40625 -16.78125 L 1.40625 -17.90625 L 13.703125 -17.90625 L 13.84375 -13.421875 L 13 -13.421875 C 13 -14.828125 12.691406 -15.785156 12.078125 -16.296875 C 11.472656 -16.804688 10.628906 -17.046875 9.546875 -17.015625 L 7.34375 -16.953125 C 6.726562 -16.941406 6.285156 -16.828125 6.015625 -16.609375 C 5.742188 -16.398438 5.570312 -16.101562 5.5 -15.71875 C 5.425781 -15.332031 5.390625 -14.734375 5.390625 -13.921875 L 5.390625 -9.828125 L 10.203125 -9.796875 L 10.03125 -12 L 11.15625 -12 L 11.15625 -6.625 L 10.3125 -6.625 C 10.3125 -7.257812 10.234375 -7.738281 10.078125 -8.0625 C 9.921875 -8.394531 9.6875 -8.617188 9.375 -8.734375 C 9.0625 -8.847656 8.625 -8.90625 8.0625 -8.90625 L 7.265625 -8.875 L 5.390625 -8.796875 L 5.390625 -2.9375 C 5.390625 -2.050781 5.363281 -1.390625 5.3125 -0.953125 L 10.203125 -1.015625 C 11.398438 -1.035156 12.3125 -1.335938 12.9375 -1.921875 C 13.570312 -2.515625 13.890625 -3.535156 13.890625 -4.984375 L 14.765625 -4.984375 L 14.609375 0 L 1.40625 0 Z M 1.40625 -0.84375 "/></g></g></g><g fill="#000000" fill-opacity="1"><g transform="translate(260.964965, 273.722588)"><g><path d="M -0.15625 -0.84375 C 0.269531 -0.84375 0.609375 -0.941406 0.859375 -1.140625 C 1.117188 -1.335938 1.328125 -1.59375 1.484375 -1.90625 C 1.648438 -2.21875 1.847656 -2.691406 2.078125 -3.328125 L 2.328125 -4.046875 L 7.59375 -18.390625 L 8.203125 -18.390625 L 13.921875 -3.84375 C 14.109375 -3.375 14.269531 -2.867188 14.40625 -2.328125 C 14.539062 -1.796875 14.597656 -1.359375 14.578125 -1.015625 L 16.3125 -1.125 L 16.3125 0 L 10.46875 0 L 10.46875 -0.84375 C 11.46875 -0.863281 11.96875 -1.273438 11.96875 -2.078125 C 11.96875 -2.398438 11.882812 -2.800781 11.71875 -3.28125 L 10.8125 -5.671875 L 4.171875 -5.53125 C 3.910156 -4.820312 3.613281 -3.90625 3.28125 -2.78125 C 3.101562 -2.21875 2.890625 -1.628906 2.640625 -1.015625 L 4.625 -1.125 L 4.625 0 L -0.15625 0 Z M 10.46875 -6.625 L 8.640625 -11.515625 L 7.5 -14.65625 L 7.4375 -14.65625 L 6.375 -11.765625 L 4.984375 -7.875 L 4.546875 -6.625 Z M 10.46875 -6.625 "/></g></g></g><g fill="#000000" fill-opacity="1"><g transform="translate(286.575221, 273.722588)"><g><path d="M 2.4375 -13.359375 C 1.820312 -14.804688 1.453125 -15.960938 1.328125 -16.828125 L -0.109375 -16.78125 L -0.109375 -17.90625 L 5.828125 -17.90625 L 5.828125 -17.0625 L 5.8125 -17.03125 C 5.25 -17 4.832031 -16.875 4.5625 -16.65625 C 4.300781 -16.445312 4.171875 -16.140625 4.171875 -15.734375 C 4.171875 -15.335938 4.289062 -14.847656 4.53125 -14.265625 L 5.1875 -12.640625 C 5.363281 -12.210938 5.625 -11.5625 5.96875 -10.6875 C 6.320312 -9.820312 6.648438 -9.03125 6.953125 -8.3125 L 7.625 -6.75 C 8.289062 -5.226562 8.757812 -4.101562 9.03125 -3.375 L 9.078125 -3.375 L 10.03125 -6.109375 L 10.359375 -7.03125 L 12.609375 -13.359375 L 13.203125 -14.984375 C 13.523438 -15.910156 13.769531 -16.539062 13.9375 -16.875 L 11.96875 -16.78125 L 11.96875 -17.90625 L 17.15625 -17.90625 L 17.15625 -17.0625 C 16.40625 -17.03125 15.828125 -16.832031 15.421875 -16.46875 C 15.023438 -16.113281 14.664062 -15.472656 14.34375 -14.546875 L 8.953125 0.25 L 8.234375 0.25 Z M 2.4375 -13.359375 "/></g></g></g><g fill="#000000" fill-opacity="1"><g transform="translate(312.876186, 273.722588)"><g><path d="M 1.40625 -0.84375 C 2 -0.863281 2.421875 -1 2.671875 -1.25 C 2.929688 -1.507812 3.078125 -1.8125 3.109375 -2.15625 C 3.148438 -2.507812 3.171875 -3.117188 3.171875 -3.984375 L 3.171875 -15.046875 C 3.171875 -15.753906 3.195312 -16.363281 3.25 -16.875 L 1.40625 -16.78125 L 1.40625 -17.90625 L 13.703125 -17.90625 L 13.84375 -13.421875 L 13 -13.421875 C 13 -14.828125 12.691406 -15.785156 12.078125 -16.296875 C 11.472656 -16.804688 10.628906 -17.046875 9.546875 -17.015625 L 7.34375 -16.953125 C 6.726562 -16.941406 6.285156 -16.828125 6.015625 -16.609375 C 5.742188 -16.398438 5.570312 -16.101562 5.5 -15.71875 C 5.425781 -15.332031 5.390625 -14.734375 5.390625 -13.921875 L 5.390625 -9.828125 L 10.203125 -9.796875 L 10.03125 -12 L 11.15625 -12 L 11.15625 -6.625 L 10.3125 -6.625 C 10.3125 -7.257812 10.234375 -7.738281 10.078125 -8.0625 C 9.921875 -8.394531 9.6875 -8.617188 9.375 -8.734375 C 9.0625 -8.847656 8.625 -8.90625 8.0625 -8.90625 L 7.265625 -8.875 L 5.390625 -8.796875 L 5.390625 -2.9375 C 5.390625 -2.050781 5.363281 -1.390625 5.3125 -0.953125 L 10.203125 -1.015625 C 11.398438 -1.035156 12.3125 -1.335938 12.9375 -1.921875 C 13.570312 -2.515625 13.890625 -3.535156 13.890625 -4.984375 L 14.765625 -4.984375 L 14.609375 0 L 1.40625 0 Z M 1.40625 -0.84375 "/></g></g></g><g fill="#000000" fill-opacity="1"><g transform="translate(338.384103, 273.722588)"><g><path d="M 1.40625 -0.84375 C 2 -0.863281 2.421875 -1 2.671875 -1.25 C 2.929688 -1.507812 3.078125 -1.8125 3.109375 -2.15625 C 3.148438 -2.507812 3.171875 -3.117188 3.171875 -3.984375 L 3.171875 -15.046875 C 3.171875 -15.753906 3.195312 -16.363281 3.25 -16.875 L 1.40625 -16.78125 L 1.40625 -17.90625 C 3.175781 -17.9375 4.515625 -17.953125 5.421875 -17.953125 C 6.242188 -17.953125 6.859375 -17.945312 7.265625 -17.9375 C 9.671875 -17.894531 11.429688 -17.484375 12.546875 -16.703125 C 13.660156 -15.929688 14.21875 -14.816406 14.21875 -13.359375 C 14.238281 -12.179688 13.890625 -11.117188 13.171875 -10.171875 C 12.453125 -9.234375 11.207031 -8.585938 9.4375 -8.234375 C 9.726562 -8.015625 9.992188 -7.75 10.234375 -7.4375 C 10.472656 -7.132812 10.796875 -6.660156 11.203125 -6.015625 L 12.9375 -3.28125 C 13.3125 -2.675781 13.625 -2.21875 13.875 -1.90625 C 14.125 -1.59375 14.421875 -1.335938 14.765625 -1.140625 C 15.117188 -0.941406 15.550781 -0.84375 16.0625 -0.84375 L 16.0625 0 L 12.84375 0 C 12.382812 -0.394531 11.992188 -0.800781 11.671875 -1.21875 C 11.359375 -1.632812 10.988281 -2.175781 10.5625 -2.84375 L 8.84375 -5.578125 L 8.515625 -6.109375 C 8.242188 -6.566406 8.003906 -6.941406 7.796875 -7.234375 C 7.597656 -7.523438 7.378906 -7.78125 7.140625 -8 C 6.984375 -7.988281 6.742188 -7.984375 6.421875 -7.984375 C 5.960938 -7.984375 5.617188 -7.988281 5.390625 -8 L 5.390625 -3.046875 C 5.390625 -2.140625 5.363281 -1.460938 5.3125 -1.015625 L 7.15625 -1.125 L 7.15625 0 L 1.40625 0 Z M 6.515625 -8.953125 C 9.992188 -8.953125 11.734375 -10.328125 11.734375 -13.078125 C 11.734375 -14.367188 11.359375 -15.335938 10.609375 -15.984375 C 9.859375 -16.628906 8.707031 -16.953125 7.15625 -16.953125 C 6.5625 -16.953125 6.132812 -16.832031 5.875 -16.59375 C 5.625 -16.351562 5.476562 -16.0625 5.4375 -15.71875 C 5.40625 -15.382812 5.390625 -14.785156 5.390625 -13.921875 L 5.390625 -9 C 5.910156 -8.96875 6.285156 -8.953125 6.515625 -8.953125 Z M 6.515625 -8.953125 "/></g></g></g></svg>