<svg xmlns="http://www.w3.org/2000/svg" version="1.1" xmlns:xlink="http://www.w3.org/1999/xlink" xmlns:svgjs="http://svgjs.dev/svgjs" width="1500" height="193" viewBox="0 0 1500 193"><g transform="matrix(1,0,0,1,-0.9090909090909918,0.7780756124445247)"><svg viewBox="0 0 396 51" data-background-color="#ffffff" preserveAspectRatio="xMidYMid meet" height="193" width="1500" xmlns="http://www.w3.org/2000/svg" xmlns:xlink="http://www.w3.org/1999/xlink"><g id="tight-bounds" transform="matrix(1,0,0,1,0.2400000000000091,-0.20560547271850282)"><svg viewBox="0 0 395.52 51.41121094543699" height="51.41121094543699" width="395.52"><g><svg viewBox="0 0 490.25086559223604 63.724693232062926" height="51.41121094543699" width="395.52"><g><rect width="5.718167760747115" height="63.724693232062926" x="74.04367227979488" y="0" fill="#000000" opacity="1" stroke-width="0" stroke="transparent" fill-opacity="1" class="rect-yte-0" data-fill-palette-color="primary" rx="1%" id="yte-0" data-palette-color="#000000"></rect></g><g transform="matrix(1,0,0,1,94.73086559223601,0.15851913739318846)"><svg viewBox="0 0 395.52000000000004 63.40765495727655" height="63.40765495727655" width="395.52000000000004"><g id="textblocktransform"><svg viewBox="0 0 395.52000000000004 63.40765495727655" height="63.40765495727655" width="395.52000000000004" id="textblock"><g><svg viewBox="0 0 395.52000000000004 63.40765495727655" height="63.40765495727655" width="395.52000000000004"><g transform="matrix(1,0,0,1,0,0)"><svg width="395.52000000000004" viewBox="1.27 -37.01 359.98 57.71" height="63.40765495727655" data-palette-color="#000000"><path d="M26.81-17.87L26.81-17.87 28.17-17.87Q29-17.87 29.76-17.72 30.52-17.58 30.52-16.65L30.52-16.65Q30.86-14.7 28.22-14.75L28.22-14.75Q27.49-14.79 26.88-14.84 26.27-14.89 25.88-14.87 25.49-14.84 25.54-14.6L25.54-14.6Q26.03-13.18 26.59-11.43 27.15-9.67 27.83-7.91L27.83-7.91Q29.59-3.56 31.15-1.66L31.15-1.66Q30.32-0.63 29.22 0.05 28.13 0.73 28.05 0.73 27.98 0.73 27.93 0.68L27.93 0.68 21.04-13.82 7.71-10.55 7.23-8.5Q5.81-2.88 4.05-0.68L4.05-0.68Q3.76-0.2 2.83-0.59L2.83-0.59Q1.27-1.17 1.27-1.56L1.27-1.56Q1.27-1.66 2.29-4.39 3.32-7.13 4.37-9.94 5.42-12.74 6.57-15.82 7.71-18.9 8.74-21.68 9.77-24.46 10.6-26.68 11.43-28.91 11.77-29.91 12.11-30.91 12.23-31.67 12.35-32.42 12.6-32.96L12.6-32.96Q13.09-34.08 15.04-34.08L15.04-34.08Q17.14-32.91 18.29-31.03 19.43-29.15 20.24-27 21.04-24.85 21.83-22.66 22.61-20.46 23.93-18.65L23.93-18.65Q24.37-17.97 25.24-17.92 26.12-17.87 26.81-17.87ZM14.6-28.42L14.6-28.42Q14.21-25.44 12.84-22.31 11.47-19.19 10.64-17.46 9.81-15.72 9.23-14.26L9.23-14.26Q12.55-14.26 17.38-16.21L17.38-16.21Q18.6-16.75 19.73-17.19L19.73-17.19Q17.43-27 14.6-28.42ZM37.16-27.59L37.16-0.78Q37.16 0.05 35.98 0.05L35.98 0.05Q35.1 0.05 33.88-0.78L33.88-0.78Q33.3-2.1 33.3-7.08 33.3-12.06 33.4-15.31 33.49-18.55 33.59-21.29L33.59-21.29Q33.88-27.25 33.88-27.59L33.88-27.59Q35.3-28.42 36.23-28.42 37.16-28.42 37.16-27.59L37.16-27.59ZM41.84 0.05L41.84 0.05Q40.72-0.05 40.72-0.93L40.72-0.93Q40.72-2 41.94-2.93L41.94-2.93Q42.43-3.27 42.7-3.27 42.96-3.27 43.11-3.22L43.11-3.22Q44.14-3.22 44.5-2.81 44.87-2.39 44.87-1.71 44.87-1.03 44.58-0.68 44.28-0.34 43.84-0.2L43.84-0.2Q43.11 0.05 41.84 0.05ZM47.36-4.27Q47.36-5.18 48.11-5.88 48.87-6.59 49.28-6.86 49.7-7.13 49.85-7.28L49.85-7.28Q50.09-2.83 55.85-2.83L55.85-2.83Q60.39-2.83 66.45-5.66L66.45-5.66Q70.74-7.62 72.21-9.67L72.21-9.67Q72.7-10.3 72.7-10.72 72.7-11.13 72.55-11.38L72.55-11.38 52.29-15.92Q51.41-16.11 50.58-16.75L50.58-16.75Q49.06-17.82 49.06-18.7L49.06-18.7Q49.06-22.07 53.85-24.8L53.85-24.8Q59.12-27.78 67.96-29.3L67.96-29.3Q69.96-29.64 70.94-29.69L70.94-29.69Q71.23-29.59 71.84-29.52 72.45-29.44 73.09-29.3L73.09-29.3Q74.6-28.96 74.36-28.03L74.36-28.03Q74.36-26.37 68.01-25.39L68.01-25.39Q59.81-24.17 57.78-23.34 55.75-22.51 54.85-21.63 53.95-20.75 53.9-19.53L53.9-19.53Q53.9-19.29 55.02-18.99 56.14-18.7 57.71-18.29 59.27-17.87 61.76-17.19L61.76-17.19Q67.81-15.53 76.6-12.99L76.6-12.99Q77.09-11.91 77.09-10.99L77.09-10.99Q77.09-8.4 74.06-6.01L74.06-6.01Q70.65-3.32 64.59-1.46L64.59-1.46Q59.56 0.05 56.58 0.05L56.58 0.05Q54.09 0.05 51.85-0.83 49.6-1.71 48.48-2.54 47.36-3.37 47.36-4.27ZM87.44-4.69L87.44-4.69 87.54-12.5Q87.54-14.36 87.2-15.67L87.2-15.67 79.63-15.67 79.53-19.04 86.86-19.04 86.86-31.64Q87-32.08 87.44-32.52L87.44-32.52Q88.12-33.2 88.59-33.2 89.05-33.2 89.39-33.11 89.74-33.01 90.13-32.42L90.13-32.42Q90.91-29.2 90.91-22.71L90.91-22.71Q90.91-21.09 91.05-19.53L91.05-19.53Q92.62-19.73 94.18-19.73L94.18-19.73Q94.18-19.73 96.72-19.73L96.72-19.73Q97.65-19.73 98.43-19.82L98.43-19.82 98.28-16.31 91.15-16.5 91.4 0.34Q90.52 0.73 89.88 0.73L89.88 0.73Q87.44 0.73 87.44-4.69ZM101.5-9.28L101.5-9.28Q101.5-15.04 106.48-18.55L106.48-18.55Q110.44-21.34 116-21.92L116-21.92Q116.3-21.92 117.37-21.92 118.44-21.92 120.25-21.29L120.25-21.29Q124.26-19.92 125.72-16.46L125.72-16.46Q126.31-15.09 126.31-14.14 126.31-13.18 126.26-12.79L126.26-12.79Q126.26-6.69 121.62-3.17L121.62-3.17Q117.32 0.05 110.88 0.05L110.88 0.05Q106.24 0.05 103.87-2.1 101.5-4.25 101.5-9.28ZM104.87-8.11L104.87-8.11Q104.87-5.08 106.48-4L106.48-4Q107.7-3.22 110.58-3.22 113.46-3.22 115.66-3.66 117.86-4.1 119.57-5.18L119.57-5.18Q123.23-7.52 123.23-12.45L123.23-12.45Q123.23-15.38 121.67-17.24L121.67-17.24Q119.96-19.24 117.18-19.24L117.18-19.24Q115.27-18.9 113.34-18.51 111.41-18.12 109.7-16.99L109.7-16.99Q105.99-14.6 104.87-8.11ZM152.38-17.82L152.38-17.82Q150.33-19.29 147.1-19.29L147.1-19.29Q144.08-19.29 141.49-18.16L141.49-18.16Q136.61-16.11 134.8-12.89L134.8-12.89Q134.02-11.43 134.02-9.77L134.02-9.77Q134.02-9.47 134.02-8.13 134.02-6.79 134.51-4.52 134.99-2.25 134.99 0.1L134.99 0.1Q133.97 0.15 133.33 0.34 132.7 0.54 132.26 0.54 131.82 0.54 131.5 0.15 131.19-0.24 130.8-1.37L130.8-1.37Q130.75-1.66 130.6-3.03 130.45-4.39 130.23-6.35 130.01-8.3 129.75-10.62 129.48-12.94 129.23-15.19L129.23-15.19Q128.7-20.07 128.4-22.36L128.4-22.36Q128.4-23.54 130.11-23.54L130.11-23.54Q131.14-23.54 131.72-22.68 132.31-21.83 132.65-20.73 132.99-19.63 133.11-18.55 133.24-17.48 133.33-17.04L133.33-17.04Q139.78-22.8 149.35-22.8L149.35-22.8Q150.42-22.8 151.6-22.75L151.6-22.75Q151.89-22.8 152.33-22.8 152.77-22.8 153.21-22.22L153.21-22.22Q153.74-21.53 153.74-20.56L153.74-20.56Q153.74-18.12 152.38-17.82ZM181.13-21.19L166.29 18.41Q165.27 20.7 163.85 20.7L163.85 20.7Q163.17 20.7 162.85 20.09 162.53 19.48 162.82 18.65L162.82 18.65Q163.9 14.11 165.92 8.3 167.95 2.49 168.63 0.49L168.63 0.49Q166.93-1.22 163.26-6.35L163.26-6.35Q155.74-16.89 155.74-17.92L155.74-17.92Q155.74-17.97 155.79-18.02L155.79-18.02 157.65-19.87Q161.51-16.31 167.71-7.76L167.71-7.76Q169.27-5.62 170.2-4.15L170.2-4.15Q171.22-6.2 171.81-7.69 172.39-9.18 172.76-10.08 173.13-10.99 173.76-12.5L173.76-12.5Q175.42-16.55 178.35-22.8L178.35-22.8Q178.79-23 179.28-23L179.28-23Q180.5-23 181.04-22.36L181.04-22.36Q181.23-22.12 181.23-21.8 181.23-21.48 181.13-21.19L181.13-21.19ZM219.36-8.11L219.36-8.11Q221.81-16.02 225.03-37.01L225.03-37.01Q228.11-37.01 228.25-35.11L228.25-35.11Q228.3-34.52 228.32-34.28 228.35-34.03 228.15-32.59 227.96-31.15 227.59-28.56 227.23-25.98 226.69-22.56 226.15-19.14 225.47-15.43L225.47-15.43Q223.81-6.69 222.05-0.68L222.05-0.68Q220.29 0.54 219.32-0.29L219.32-0.29Q218.88-0.73 218.53-1.49 218.19-2.25 217.75-3.22L217.75-3.22Q217.12-4.05 215.41-7.62 213.7-11.18 212.65-13.28 211.6-15.38 210.62-17.19L210.62-17.19Q208.38-21.24 206.86-21.92L206.86-21.92Q205.11-19.19 200.61-6.93L200.61-6.93Q199.83-4.79 199.2-2.95 198.56-1.12 198.12 0L198.12 0 195.1-0.15 182.89-28.37Q182.79-28.61 182.79-28.86 182.79-29.1 182.96-29.35 183.13-29.59 183.57-29.79L183.57-29.79Q184.4-30.08 185.23-30.08 186.06-30.08 186.43-29.76 186.8-29.44 187.02-28.96 187.24-28.47 187.38-27.88 187.53-27.29 187.94-26.37 188.36-25.44 189.16-23.63 189.97-21.83 190.9-19.82 191.83-17.82 192.75-15.84 193.68-13.87 194.51-12.21L194.51-12.21Q196.27-8.54 196.71-8.11L196.71-8.11Q202.37-22.07 203.69-24.68 205.01-27.29 205.35-27.88L205.35-27.88Q205.89-28.71 206.18-28.71L206.18-28.71Q208.28-28.71 213.26-19.34L213.26-19.34Q214.63-16.85 215.8-14.55L215.8-14.55Q218.68-8.98 219.36-8.11ZM240.41-3.42L240.41-3.42Q244.7-3.42 253.35-7.32L253.35-7.32Q253.88-7.32 254.23-6.96 254.57-6.59 254.57-6.1L254.57-6.1Q252.61-2.78 247.1-0.93 241.58 0.93 236.79-0.29L236.79-0.29Q231.37-1.71 230.2-6.4L230.2-6.4Q230.1-7.32 230.1-8.89 230.1-10.45 230.91-13.01 231.72-15.58 233.67-17.87 235.62-20.17 238.26-21.48 240.9-22.8 243.87-22.8L243.87-22.8Q246.71-22.8 250.22-20.85L250.22-20.85Q251.88-19.92 252.86-18.75 253.83-17.58 253.83-16.36L253.83-16.36Q253.83-16.02 253.79-15.67L253.79-15.67Q253.69-12.7 250.91-11.91L250.91-11.91Q249.68-11.57 248.07-11.57L248.07-11.57 241.04-11.87Q237.53-11.87 235.67-10.35L235.67-10.35Q234.6-9.52 234.16-7.86L234.16-7.86Q235.38-3.42 240.41-3.42ZM249.12-18.51Q248.02-19.29 246.85-19.63 245.68-19.97 244.9-19.97 244.12-19.97 242.36-19.46 240.6-18.95 239.24-18.31L239.24-18.31Q235.87-16.75 235.87-15.04L235.87-15.04Q239.77-14.7 241.73-14.7L241.73-14.7Q247.15-14.7 249.05-15.63L249.05-15.63Q250.22-16.11 250.22-16.85L250.22-16.85Q250.22-17.72 249.12-18.51ZM276.68-8.11L276.68-8.11Q273.02-2.34 266.92-0.98L266.92-0.98Q265.5-0.68 264.35-0.68 263.21-0.68 262.45-0.71 261.69-0.73 260.77-0.93 259.84-1.12 259.06-1.56L259.06-1.56Q257.25-2.59 257.25-4.44L257.25-4.44Q257.06-5.32 257.06-6.42 257.06-7.52 257.54-9.33 258.03-11.13 259.33-13.23 260.62-15.33 262.48-17.09L262.48-17.09Q266.33-20.8 270.82-21.88L270.82-21.88Q272.14-22.17 273.24-22.17 274.34-22.17 275.22-22.02L275.22-22.02Q278.05-22.02 279.03-18.16L279.03-18.16Q279.66-15.72 279.78-11.35 279.91-6.98 280.03-4.61 280.15-2.25 280.64-0.29L280.64-0.29 277.76-0.29Q277.56-1.61 277.47-2.64 277.37-3.66 277.27-4.54L277.27-4.54Q277.03-6.59 276.68-8.11ZM276.49-15.67L276.49-15.67Q276.49-18.51 273.71-18.51L273.71-18.51Q273.36-18.55 273.02-18.55L273.02-18.55Q269.46-18.55 265.5-15.14L265.5-15.14Q263.65-13.57 262.33-11.62L262.33-11.62Q260.38-8.84 260.38-6.64L260.38-6.64Q260.38-3.76 263.7-3.22L263.7-3.22Q268.09-3.32 272.09-7.23L272.09-7.23Q273.8-8.94 274.93-10.94L274.93-10.94Q276.49-13.62 276.49-15.67ZM283.37-18.9L283.37-18.9Q283.27-19.14 283.27-19.46 283.27-19.78 283.52-20.31 283.76-20.85 284.23-21.24 284.69-21.63 285.25-21.61 285.81-21.58 286.15-20.9L286.15-20.9 294.36-5.66Q294.75-6.25 295.6-7.84 296.46-9.42 297.56-11.43 298.65-13.43 299.85-15.6 301.05-17.77 302.07-19.58L302.07-19.58Q304.42-23.73 304.86-23.73L304.86-23.73Q305.88-23.73 306.34-22.97 306.81-22.22 306.81-21.83 306.81-21.44 306.81-21.29L306.81-21.29Q304.07-15.33 301.75-10.3 299.44-5.27 298.68-3.78 297.92-2.29 297.34-1.42L297.34-1.42Q296.31 0.1 295.33 0.1 294.36 0.1 293.09-1.44 291.82-2.98 290.21-5.57L290.21-5.57Q287.37-10.25 283.37-18.9ZM318.82-3.42L318.82-3.42Q323.11-3.42 331.76-7.32L331.76-7.32Q332.29-7.32 332.64-6.96 332.98-6.59 332.98-6.1L332.98-6.1Q331.02-2.78 325.51-0.93 319.99 0.93 315.2-0.29L315.2-0.29Q309.78-1.71 308.61-6.4L308.61-6.4Q308.51-7.32 308.51-8.89 308.51-10.45 309.32-13.01 310.13-15.58 312.08-17.87 314.03-20.17 316.67-21.48 319.31-22.8 322.28-22.8L322.28-22.8Q325.12-22.8 328.63-20.85L328.63-20.85Q330.29-19.92 331.27-18.75 332.25-17.58 332.25-16.36L332.25-16.36Q332.25-16.02 332.2-15.67L332.2-15.67Q332.1-12.7 329.32-11.91L329.32-11.91Q328.1-11.57 326.48-11.57L326.48-11.57 319.45-11.87Q315.94-11.87 314.08-10.35L314.08-10.35Q313.01-9.52 312.57-7.86L312.57-7.86Q313.79-3.42 318.82-3.42ZM327.53-18.51Q326.43-19.29 325.26-19.63 324.09-19.97 323.31-19.97 322.53-19.97 320.77-19.46 319.01-18.95 317.65-18.31L317.65-18.31Q314.28-16.75 314.28-15.04L314.28-15.04Q318.18-14.7 320.14-14.7L320.14-14.7Q325.56-14.7 327.46-15.63L327.46-15.63Q328.63-16.11 328.63-16.85L328.63-16.85Q328.63-17.72 327.53-18.51ZM359.88-17.82L359.88-17.82Q357.83-19.29 354.61-19.29L354.61-19.29Q351.58-19.29 348.99-18.16L348.99-18.16Q344.11-16.11 342.3-12.89L342.3-12.89Q341.52-11.43 341.52-9.77L341.52-9.77Q341.52-9.47 341.52-8.13 341.52-6.79 342.01-4.52 342.5-2.25 342.5 0.1L342.5 0.1Q341.47 0.15 340.84 0.34 340.2 0.54 339.76 0.54 339.32 0.54 339.01 0.15 338.69-0.24 338.3-1.37L338.3-1.37Q338.25-1.66 338.1-3.03 337.96-4.39 337.74-6.35 337.52-8.3 337.25-10.62 336.98-12.94 336.74-15.19L336.74-15.19Q336.2-20.07 335.91-22.36L335.91-22.36Q335.91-23.54 337.61-23.54L337.61-23.54Q338.64-23.54 339.23-22.68 339.81-21.83 340.15-20.73 340.49-19.63 340.62-18.55 340.74-17.48 340.84-17.04L340.84-17.04Q347.28-22.8 356.85-22.8L356.85-22.8Q357.93-22.8 359.1-22.75L359.1-22.75Q359.39-22.8 359.83-22.8 360.27-22.8 360.71-22.22L360.71-22.22Q361.25-21.53 361.25-20.56L361.25-20.56Q361.25-18.12 359.88-17.82Z" opacity="1" transform="matrix(1,0,0,1,0,0)" fill="#000000" class="wordmark-text-0" data-fill-palette-color="primary" id="text-0"></path></svg></g></svg></g></svg></g></svg></g><g transform="matrix(1,0,0,1,0,0.158519137393192)"><svg viewBox="0 0 59.07464672810086 63.40765495727654" height="63.40765495727654" width="59.07464672810086"><g><svg xmlns="http://www.w3.org/2000/svg" xmlns:xlink="http://www.w3.org/1999/xlink" version="1.1" x="0" y="0" viewBox="29.5 12.8 454 487.3" style="enable-background:new 0 0 512 512;" xml:space="preserve" height="63.40765495727654" width="59.07464672810086" class="icon-icon-0" data-fill-palette-color="accent" id="icon-0"><g fill="#383961" data-fill-palette-color="accent"><g fill="#383961" data-fill-palette-color="accent"><g fill="#383961" data-fill-palette-color="accent"><path d="M463.1 416.8H49.8C38.6 416.8 29.5 407.7 29.5 396.5V92.3C29.5 81.1 38.6 72 49.8 72H143.8C146 72 147.8 73.8 147.8 76S146 80 143.8 80H49.8C43 80 37.5 85.5 37.5 92.3V396.5C37.5 403.3 43 408.8 49.8 408.8H463.1C469.9 408.8 475.4 403.3 475.4 396.5V92.3C475.4 85.5 469.9 80 463.1 80 455.1 80 439.4 80.4 422.7 80.7 402.6 81.2 381.8 81.6 369.2 81.6 367 81.6 365.2 79.8 365.2 77.6S367 73.6 369.2 73.6C381.8 73.6 403.4 73.1 422.6 72.7 439.3 72.3 455.1 71.9 463.2 71.9 474.4 71.9 483.5 81 483.5 92.2V396.4C483.4 407.7 474.3 416.8 463.1 416.8" fill="#383961" data-fill-palette-color="accent"></path></g><g fill="#383961" data-fill-palette-color="accent"><path d="M310.6 471.8H202.3C201.1 471.8 200 471.3 199.3 470.4 198.5 469.5 198.2 468.3 198.4 467.2L207.2 412.2C207.5 410.3 209.2 408.8 211.1 408.8H301.8C303.8 408.8 305.4 410.2 305.8 412.2L314.5 466.8C314.6 467.1 314.6 467.5 314.6 467.8 314.6 470 312.8 471.8 310.6 471.8M207 463.8H305.9L298.5 416.8H214.6z" fill="#383961" data-fill-palette-color="accent"></path></g><g fill="#383961" data-fill-palette-color="accent"><path d="M345.7 500.1H167.3C165.1 500.1 163.3 498.3 163.3 496.1V467.8C163.3 465.6 165.1 463.8 167.3 463.8H345.7C347.9 463.8 349.7 465.6 349.7 467.8V496.1C349.7 498.3 347.9 500.1 345.7 500.1M171.3 492.1H341.7V471.8H171.3z" fill="#383961" data-fill-palette-color="accent"></path></g><g fill="#383961" data-fill-palette-color="accent"><path d="M479.4 347.5H33.5C31.3 347.5 29.5 345.7 29.5 343.5S31.3 339.5 33.5 339.5H479.4C481.6 339.5 483.4 341.3 483.4 343.5S481.6 347.5 479.4 347.5" fill="#383961" data-fill-palette-color="accent"></path></g><g fill="#383961" data-fill-palette-color="accent"><path d="M256.4 398.3C245.3 398.3 236.3 389.3 236.3 378.2S245.3 358 256.4 358 276.6 367.1 276.6 378.2 267.6 398.3 256.4 398.3M256.4 366C249.7 366 244.3 371.5 244.3 378.2S249.7 390.3 256.4 390.3 268.6 384.9 268.6 378.2 263.1 366 256.4 366" fill="#383961" data-fill-palette-color="accent"></path></g><g fill="#383961" data-fill-palette-color="accent"><path d="M369.2 288.3H143.8C141.6 288.3 139.8 286.5 139.8 284.3V16.8C139.8 14.6 141.6 12.8 143.8 12.8H369.2C371.4 12.8 373.2 14.6 373.2 16.8V284.2C373.2 286.5 371.4 288.3 369.2 288.3M147.8 280.3H365.2V20.8H147.8z" fill="#383961" data-fill-palette-color="accent"></path></g><g fill="#383961" data-fill-palette-color="accent"><path d="M369.2 96.7H143.8C141.6 96.7 139.8 94.9 139.8 92.7S141.6 88.7 143.8 88.7H369.2C371.4 88.7 373.2 90.5 373.2 92.7S371.4 96.7 369.2 96.7" fill="#383961" data-fill-palette-color="accent"></path></g><g fill="#383961" data-fill-palette-color="accent"><path d="M179.8 68.8C172.1 68.8 165.8 62.5 165.8 54.7 165.8 47 172.1 40.7 179.8 40.7S193.8 47 193.8 54.7C193.8 62.5 187.5 68.8 179.8 68.8M179.8 48.7C176.5 48.7 173.8 51.4 173.8 54.7 173.8 58.1 176.4 60.8 179.8 60.8 183.1 60.8 185.8 58.1 185.8 54.7 185.8 51.4 183.1 48.7 179.8 48.7" fill="#383961" data-fill-palette-color="accent"></path></g><g fill="#383961" data-fill-palette-color="accent"><path d="M231.2 68.8C223.5 68.8 217.2 62.5 217.2 54.7 217.2 47 223.5 40.7 231.2 40.7S245.2 47 245.2 54.7C245.2 62.5 238.9 68.8 231.2 68.8M231.2 48.7C227.9 48.7 225.2 51.4 225.2 54.7 225.2 58.1 227.8 60.8 231.2 60.8 234.5 60.8 237.2 58.1 237.2 54.7 237.2 51.4 234.5 48.7 231.2 48.7" fill="#383961" data-fill-palette-color="accent"></path></g><g fill="#383961" data-fill-palette-color="accent"><path d="M267.4 252.9C265.2 252.9 263.4 251.1 263.4 248.9V128.3C263.4 126.1 265.2 124.3 267.4 124.3 269.3 124.3 271.3 124.2 273.2 124.1 275.2 124 277.2 123.9 279.2 123.9 286.2 123.9 294.1 124.9 299.6 132 302 135.1 305.2 137.6 308.2 139.9 312.9 143.5 317.7 147.2 319.9 153.4 320.6 155.4 321.7 157.6 322.8 159.9 326.2 166.8 330.5 175.5 327 185.2 325 190.8 324.6 196.8 324.2 202.6 323.6 211.8 322.9 221.4 315.5 228.2 313.4 230.1 311.4 232.3 309.3 234.7 303.2 241.6 296.3 249.4 284.9 249.8 282.9 249.9 280.6 250.4 278.3 251 275.2 252 271.5 252.9 267.4 252.9M271.4 132.2V244.5C273.1 244.2 274.8 243.8 276.4 243.4 279.1 242.7 281.9 242 284.8 241.9 292.8 241.7 298 235.8 303.5 229.5 305.6 227.1 307.8 224.6 310.2 222.4 315.2 217.8 315.7 210.5 316.3 202.1 316.7 196 317.2 189.2 319.6 182.5 321.9 176 318.9 169.9 315.7 163.5 314.5 161.1 313.3 158.6 312.4 156.2 311 152.3 307.4 149.5 303.3 146.3 300 143.7 296.3 140.8 293.2 136.9 290.5 133.3 286.5 131.9 279.2 131.9 277.4 131.9 275.5 132 273.5 132.1 272.8 132.2 272.1 132.2 271.4 132.2" fill="#383961" data-fill-palette-color="accent"></path></g><g fill="#383961" data-fill-palette-color="accent"><path d="M292.2 194.7C290.2 194.7 288.5 193.2 288.2 191.2 287.9 189 289.5 187 291.6 186.7 292.6 186.6 295.6 184.5 296.7 183.4 298.3 181.8 300.8 181.8 302.4 183.4S304 187.5 302.4 189.1C302.4 189.1 297.2 194.1 292.7 194.6 292.5 194.6 292.4 194.7 292.2 194.7" fill="#383961" data-fill-palette-color="accent"></path></g><g fill="#383961" data-fill-palette-color="accent"><path d="M245.5 252.9C241.3 252.9 237.7 252 234.5 251.1 232.2 250.5 229.9 249.9 228 249.9 216.5 249.5 209.6 241.7 203.4 234.7 201.4 232.4 199.4 230.2 197.4 228.3 190 221.5 189.4 211.9 188.7 202.7 188.3 196.9 187.9 190.9 185.9 185.3 182.4 175.6 186.7 166.9 190.1 159.9 191.2 157.6 192.3 155.5 193 153.5 195.1 147.4 200 143.7 204.6 140.1 207.7 137.7 210.8 135.3 213.2 132.1 218.7 124.9 226.6 124 233.6 124 235.6 124 237.7 124.1 239.6 124.2S243.5 124.4 245.4 124.4C247.6 124.4 249.4 126.2 249.4 128.4V249C249.5 251.1 247.7 252.9 245.5 252.9M233.6 132C226.2 132 222.3 133.4 219.6 137 216.6 141 212.8 143.9 209.5 146.4 205.4 149.6 201.9 152.3 200.5 156.2 199.6 158.7 198.4 161.1 197.2 163.4 194 169.9 191 176.1 193.3 182.6 195.7 189.2 196.2 196.1 196.6 202.2 197.2 210.6 197.7 217.8 202.7 222.5 205 224.6 207.2 227.1 209.3 229.5 214.8 235.8 220.1 241.7 228.1 242 231 242.1 233.7 242.8 236.4 243.5 238 243.9 239.7 244.4 241.4 244.6V132.2C240.7 132.2 240 132.1 239.3 132.1 237.4 132 235.5 132 233.6 132" fill="#383961" data-fill-palette-color="accent"></path></g><g fill="#383961" data-fill-palette-color="accent"><path d="M294.6 167.2H294.2C290.3 166.8 286 163.3 284.4 161.8S282.7 157.8 284.2 156.1C285.7 154.5 288.2 154.4 289.9 155.9 291.9 157.7 294.2 159.2 295 159.3 297.2 159.5 298.8 161.5 298.6 163.7 298.3 165.6 296.6 167.2 294.6 167.2" fill="#383961" data-fill-palette-color="accent"></path></g><g fill="#383961" data-fill-palette-color="accent"><path d="M289.1 218.6H288.6C284.4 218.1 279.8 214 278.9 213.2 277.3 211.7 277.2 209.2 278.7 207.5 280.2 205.9 282.7 205.8 284.4 207.3 286.1 208.9 288.7 210.6 289.7 210.7 291.9 211 293.4 213 293.2 215.2 292.8 217.1 291.1 218.6 289.1 218.6" fill="#383961" data-fill-palette-color="accent"></path></g><g fill="#383961" data-fill-palette-color="accent"><path d="M217.7 194.7H217.2C212.8 194.1 207.7 189.5 207.5 189.3 205.9 187.8 205.8 185.3 207.3 183.6 208.8 182 211.3 181.9 213 183.4 214.5 184.8 217.3 186.6 218.3 186.8 220.5 187.1 222 189.1 221.7 191.3 221.4 193.2 219.7 194.7 217.7 194.7" fill="#383961" data-fill-palette-color="accent"></path></g><g fill="#383961" data-fill-palette-color="accent"><path d="M215.3 167.2C213.3 167.2 211.5 165.7 211.3 163.6 211.1 161.4 212.7 159.4 214.9 159.2 215.8 159.1 218.3 157.4 220 155.8 221.6 154.3 224.2 154.4 225.7 156S227.1 160.2 225.5 161.7C224.2 162.9 219.7 166.8 215.7 167.1 215.6 167.2 215.5 167.2 215.3 167.2" fill="#383961" data-fill-palette-color="accent"></path></g><g fill="#383961" data-fill-palette-color="accent"><path d="M220.8 218.6C218.8 218.6 217.1 217.1 216.8 215.1 216.5 212.9 218.1 210.9 220.2 210.6 221.2 210.5 224 208.6 225.5 207.2 227.1 205.7 229.6 205.8 231.2 207.4S232.6 211.5 231 213.1C230.8 213.3 225.7 218 221.3 218.5 221.2 218.6 221 218.6 220.8 218.6" fill="#383961" data-fill-palette-color="accent"></path></g></g></g></svg></g></svg></g></svg></g><defs></defs></svg><rect width="395.52" height="51.41121094543699" fill="none" stroke="none" visibility="hidden"></rect></g></svg></g></svg>